<svg viewBox="0 0 48 48" width="24" height="24" class="icon icon--disable-events icon--small pointer-events--none flex--no-shrink icon--midnight"><path fill-rule="evenodd" d="M37.2891 40.2612C33.6692 43.223 29.0421 45 24 45C18.997 45 14.4027 43.2505 10.7953 40.3299C10.8369 40.3053 10.8791 40.2812 10.9218 40.2574C11.5713 39.8965 12.4087 39.6021 13.6171 39.3846C16.6577 38.8374 18.3671 38.0722 19.2765 37.082C20.1716 36.1075 20.1523 35.045 20.1419 34.4727L20.1419 34.4721C20.1409 34.4169 20.14 34.3663 20.14 34.3207V33.6008C20.14 33.3124 20.0155 33.0381 19.7985 32.8482C18.5975 31.7974 17.8785 30.0754 17.2835 27.9335C17.1633 27.5007 16.7692 27.2012 16.32 27.2012C16.2474 27.2012 16.1318 27.1783 15.9535 26.9601C15.7634 26.7274 15.5836 26.3616 15.4326 25.9017C15.1294 24.9788 15.04 23.9895 15.04 23.8215L15.04 23.7897C15.0398 23.4835 15.0395 22.9701 15.1889 22.532C15.2621 22.3176 15.3497 22.1909 15.4296 22.1215C15.4906 22.0686 15.598 22.0017 15.84 22.0017C16.1479 22.0017 16.4387 21.8598 16.6282 21.6171C16.8177 21.3743 16.8848 21.0578 16.8101 20.7591C16.2271 18.4271 16.0348 16.1848 16.3286 14.5825C16.4752 13.7831 16.7271 13.2293 17.0273 12.8903C17.2985 12.5842 17.6501 12.4023 18.18 12.4023C18.3845 12.4023 18.584 12.3396 18.7518 12.2227C22.4629 9.63638 26.6569 9.43733 29.3947 10.9568C30.7502 11.709 31.7727 12.8883 32.2603 14.465C32.7505 16.0507 32.7234 18.1199 31.8178 20.6666C31.7089 20.9728 31.7556 21.3128 31.943 21.5783C32.1304 21.8438 32.435 22.0017 32.76 22.0017C33.0092 22.0017 33.1189 22.0694 33.1784 22.1199C33.2554 22.1854 33.3406 22.3054 33.4123 22.5129C33.5604 22.9421 33.5602 23.4526 33.56 23.789V23.789L33.56 23.8215C33.56 24.0097 33.4587 24.9965 33.1477 25.9159C32.9931 26.373 32.8116 26.7362 32.6222 26.9673C32.4424 27.1867 32.3332 27.2012 32.28 27.2012H32.22C31.7792 27.2012 31.3904 27.4897 31.2628 27.9116C30.6982 29.7783 29.6171 31.4472 28.1444 32.7257C27.9257 32.9156 27.8 33.1911 27.8 33.4808V34.2007C27.8 34.9377 27.9064 36.0315 29.0129 37.0566C30.0375 38.006 31.8217 38.8011 34.8515 39.3825L34.8515 39.3826L34.8615 39.3844C35.7184 39.5399 36.5384 39.8376 37.2891 40.2612ZM38.8356 38.8629C37.7457 38.1468 36.5183 37.6531 35.2238 37.4175C32.3168 36.8591 30.9822 36.1548 30.3722 35.5896C29.8436 35.0998 29.8 34.6638 29.8 34.2007V33.9254C31.2286 32.5878 32.3181 30.93 32.9791 29.0897C33.4815 28.9235 33.8768 28.5916 34.169 28.2351C34.5759 27.7387 34.8519 27.1196 35.0423 26.5567C35.4213 25.4362 35.56 24.2332 35.56 23.8215L35.5602 23.7618C35.5619 23.4419 35.5663 22.6235 35.3027 21.8602C35.1569 21.4378 34.9083 20.9654 34.4735 20.5959C34.3386 20.4812 34.1923 20.3821 34.0353 20.2994C34.73 17.8704 34.7375 15.7064 34.171 13.8742C33.5223 11.7762 32.1449 10.1957 30.3653 9.20804C26.9011 7.28547 22.0097 7.63407 17.8522 10.4153C16.9086 10.491 16.1218 10.8963 15.5302 11.5642C14.9004 12.2752 14.5448 13.2213 14.3614 14.2218C14.0436 15.9553 14.1957 18.1107 14.6448 20.2631C14.4537 20.3561 14.2779 20.4728 14.1185 20.6112C13.6866 20.9861 13.4404 21.4631 13.2961 21.8862C13.0337 22.6553 13.0382 23.4719 13.0398 23.7684L13.04 23.8215C13.04 24.1934 13.1606 25.394 13.5324 26.5259C13.7189 27.0934 13.9929 27.7213 14.4046 28.2254C14.6851 28.5687 15.0579 28.8851 15.5266 29.0598C16.0744 30.8914 16.8268 32.7124 18.14 34.0328V34.3207C18.14 34.3728 18.1402 34.4228 18.1404 34.4709C18.1425 35.0531 18.1437 35.3588 17.8035 35.7292C17.3629 36.2089 16.2223 36.8836 13.2629 37.4163C11.9053 37.6606 10.8437 38.0126 9.9502 38.5093C9.70195 38.6473 9.47041 38.7943 9.25215 38.95C5.39236 35.142 3 29.8504 3 24C3 12.402 12.402 3 24 3C35.598 3 45 12.402 45 24C45 29.8059 42.6439 35.0616 38.8356 38.8629ZM7.75155 41.6634C2.986 37.2773 0 30.9873 0 24C0 10.7452 10.7452 0 24 0C37.2548 0 48 10.7452 48 24C48 37.2548 37.2548 48 24 48C17.8084 48 12.1645 45.6554 7.90754 41.8057C7.88516 41.7892 7.8633 41.7716 7.84198 41.753C7.80956 41.7247 7.77942 41.6947 7.75155 41.6634Z"/></svg>