<?xml version="1.0" ?>
<!-- Uploaded to: SVG Repo, www.svgrepo.com, Generator: SVG Repo Mixer Tools -->
<svg width="800px" height="800px" viewBox="0 0 32 32" xmlns="http://www.w3.org/2000/svg">
<defs>
<style>.cls-1{fill:#77acf1;}.cls-2{fill:#04009a;}</style>
</defs>
<g data-name="16. Laptop Drug" id="_16._Laptop_Drug">
<rect class="cls-1" height="4" rx="1" width="8" x="12" y="22"/>
<path class="cls-2" d="M31,22V5a3,3,0,0,0-3-3H4A3,3,0,0,0,1,5V22a1,1,0,0,0-1,1v2a5,5,0,0,0,5,5H27a5,5,0,0,0,5-5V23A1,1,0,0,0,31,22ZM3,5A1,1,0,0,1,4,4H28a1,1,0,0,1,1,1V22H3ZM30,25a3,3,0,0,1-3,3H5a3,3,0,0,1-3-3V24H30Z"/>
<path class="cls-1" d="M23,10.53a4.53,4.53,0,0,0-7.74-3.2l-4.93,4.93A4.54,4.54,0,0,0,13.53,20h0a4.49,4.49,0,0,0,3.2-1.33l2.46-2.46h0l2.46-2.46A4.47,4.47,0,0,0,23,10.53Zm-7.67,6.73a2.52,2.52,0,0,1-1.79.74h0A2.53,2.53,0,0,1,11,15.46a2.56,2.56,0,0,1,.74-1.79l1.76-1.76,3.59,3.59ZM21,10.54a2.56,2.56,0,0,1-.74,1.79L18.5,14.09,14.91,10.5l1.76-1.76A2.54,2.54,0,0,1,21,10.53Z"/>
</g>
</svg>