<svg viewBox="0 0 48 48" width="24" height="24" class="icon icon--disable-events icon--small icon--midnight"><path d="M19.2384 10.75C19.2384 9.64543 20.1338 8.75 21.2384 8.75L43.2499 8.75C44.3545 8.75 45.2499 9.64543 45.2499 10.75C45.2499 11.8546 44.3545 12.75 43.2499 12.75L21.2384 12.75C20.1338 12.75 19.2384 11.8546 19.2384 10.75ZM0.75 24.0003C0.75 22.8957 1.64543 22.0003 2.75 22.0003H43.2512C44.3557 22.0003 45.2512 22.8957 45.2512 24.0003C45.2512 25.1049 44.3557 26.0003 43.2512 26.0003H2.75C1.64543 26.0003 0.75 25.1049 0.75 24.0003ZM11.5533 35.2492C10.4487 35.2492 9.55328 36.1446 9.55328 37.2492C9.55328 38.3538 10.4487 39.2492 11.5533 39.2492L43.2499 39.2492C44.3544 39.2492 45.2499 38.3538 45.2499 37.2492C45.2499 36.1446 44.3544 35.2492 43.2499 35.2492L11.5533 35.2492Z"/></svg>